<svg width="49" height="48" viewBox="0 0 49 48" fill="none" xmlns="http://www.w3.org/2000/svg">
<path d="M6.53206 22.93C6.31493 26.5764 7.21233 30.2025 9.10506 33.3268C10.9978 36.451 13.7963 38.9254 17.1288 40.4214C20.4612 41.9173 24.17 42.3639 27.7623 41.7019C31.3547 41.0399 34.6606 39.3006 37.241 36.7151C39.8213 34.1295 41.5539 30.8201 42.2087 27.2264C42.8635 23.6328 42.4094 19.9249 40.9067 16.5955C39.4041 13.266 36.924 10.4725 33.796 8.58607C30.6679 6.69963 27.04 5.80953 23.3941 6.03401" stroke="#E44646" stroke-width="3" stroke-linecap="round" stroke-linejoin="round"/>
<path d="M24.5 34L24.5 24L18.5 18M10.5 16L10.5 4M10.5 4L4.5 10M10.5 4L16.5 10" stroke="#E44646" stroke-width="3" stroke-linecap="round" stroke-linejoin="round"/>
</svg>
