<svg width="48" height="48" viewBox="0 0 48 48" fill="none" xmlns="http://www.w3.org/2000/svg">
<path d="M41.9679 25.07C42.1851 21.4236 41.2877 17.7975 39.3949 14.6732C37.5022 11.549 34.7037 9.07458 31.3712 7.57864C28.0388 6.08271 24.33 5.63607 20.7377 6.29807C17.1453 6.96007 13.8394 8.69937 11.259 11.2849C8.67869 13.8705 6.94605 17.1799 6.29129 20.7736C5.63653 24.3672 6.09064 28.0751 7.59328 31.4045C9.09592 34.734 11.576 37.5275 14.704 39.4139C17.8321 41.3004 21.46 42.1905 25.1059 41.966" stroke="#E44646" stroke-width="3" stroke-linecap="round" stroke-linejoin="round"/>
<path d="M24 14V24L30 30M38 32V44M38 44L44 38M38 44L32 38" stroke="#E44646" stroke-width="3" stroke-linecap="round" stroke-linejoin="round"/>
</svg>
