<svg width="24" height="24" viewBox="0 0 24 24" fill="none" xmlns="http://www.w3.org/2000/svg">
<path d="M8.65963 20.125C9.55084 21.375 10.6639 22 12 22C13.3361 22 14.4492 21.375 15.3404 20.125M5.20569 18.25H18.7943C19.1847 18.2502 19.5681 18.1534 19.9054 17.9695C20.2427 17.7856 20.5217 17.5213 20.714 17.2034C20.9063 16.8856 21.0049 16.5257 20.9998 16.1605C20.9947 15.7954 20.8861 15.438 20.685 15.125C19.3736 13.0803 18.6809 10.7407 18.6807 8.35625V7C18.6807 5.67392 18.1176 4.40215 17.1153 3.46447C16.113 2.52678 14.7536 2 13.3361 2H10.6639C9.24638 2 7.88696 2.52678 6.88466 3.46447C5.88235 4.40215 5.31927 5.67392 5.31927 7V8.35625C5.31927 10.74 4.62714 13.0813 3.31505 15.125C3.11395 15.438 3.00529 15.7954 3.00019 16.1605C2.99509 16.5257 3.09372 16.8856 3.28601 17.2034C3.47829 17.5213 3.75734 17.7856 4.09462 17.9695C4.4319 18.1534 4.81532 18.2502 5.20569 18.25V18.25Z" stroke="#212121" stroke-width="1.14286" stroke-linecap="round" stroke-linejoin="round"/>
</svg>
