<svg width="48" height="48" viewBox="0 0 48 48" fill="none" xmlns="http://www.w3.org/2000/svg">
<path d="M41.884 26.042C42.2933 22.4577 41.6161 18.8331 39.9402 15.6384C38.2644 12.4437 35.6672 9.82621 32.4856 8.12556C29.304 6.42491 25.6848 5.71951 22.0975 6.10087C18.5101 6.48223 15.1201 7.93274 12.3671 10.2643C9.61419 12.5958 7.62536 15.7007 6.6586 19.1764C5.69184 22.652 5.79177 26.338 6.94542 29.7561C8.09907 33.1743 10.2532 36.1669 13.1284 38.3459C16.0037 40.5248 19.4673 41.7895 23.07 41.976" stroke="#E44646" stroke-width="3" stroke-linecap="round" stroke-linejoin="round"/>
<path d="M24 14V24L30 30M30 38L34 42L42 34" stroke="#E44646" stroke-width="3" stroke-linecap="round" stroke-linejoin="round"/>
</svg>
